<?xml version="1.0" encoding="UTF-8" standalone="no"?>
<!DOCTYPE svg PUBLIC "-//W3C//DTD SVG 1.1//EN" "http://www.w3.org/Graphics/SVG/1.1/DTD/svg11.dtd">
<svg width="100%" height="100%" viewBox="0 0 355 316" version="1.1" xmlns="http://www.w3.org/2000/svg" xmlns:xlink="http://www.w3.org/1999/xlink" xml:space="preserve" xmlns:serif="http://www.serif.com/" style="fill-rule:evenodd;clip-rule:evenodd;stroke-linejoin:round;stroke-miterlimit:2;">
    <g transform="matrix(1,0,0,1,-1488.19,-909.449)">
        <path d="M1559.06,1181.1C1559.06,1200.66 1543.18,1216.54 1523.62,1216.54C1504.07,1216.54 1488.19,1200.66 1488.19,1181.1C1488.19,1161.55 1504.07,1145.67 1523.62,1145.67C1527.3,1145.67 1530.85,1146.23 1534.18,1147.27C1527.66,1140.85 1523.62,1131.91 1523.62,1122.05C1523.62,1102.49 1539.5,1086.61 1559.06,1086.61C1578.61,1086.61 1594.49,1102.49 1594.49,1122.05C1594.49,1131.91 1590.45,1140.85 1583.93,1147.27C1587.27,1146.23 1590.81,1145.67 1594.49,1145.67C1598.16,1145.67 1601.71,1146.23 1605.05,1147.27C1598.53,1140.85 1594.49,1131.91 1594.49,1122.05C1594.49,1102.49 1610.37,1086.61 1629.92,1086.61C1633.6,1086.61 1637.14,1087.17 1640.48,1088.22C1633.96,1081.79 1629.92,1072.86 1629.92,1062.99C1629.92,1053.12 1633.96,1044.19 1640.48,1037.77C1637.14,1038.81 1633.6,1039.37 1629.92,1039.37C1610.37,1039.37 1594.49,1023.49 1594.49,1003.94C1594.49,984.381 1610.37,968.504 1629.92,968.504C1633.6,968.504 1637.14,969.065 1640.48,970.106C1633.96,963.679 1629.92,954.749 1629.92,944.882C1629.92,925.326 1645.8,909.449 1665.35,909.449C1684.91,909.449 1700.79,925.326 1700.79,944.882C1700.79,954.749 1696.75,963.679 1690.23,970.106C1693.56,969.065 1697.11,968.504 1700.79,968.504C1720.34,968.504 1736.22,984.381 1736.22,1003.94C1736.22,1013.8 1732.18,1022.73 1725.66,1029.16C1729,1028.12 1732.54,1027.56 1736.22,1027.56C1755.78,1027.56 1771.65,1043.44 1771.65,1062.99C1771.65,1072.77 1767.69,1081.62 1761.28,1088.03C1760.28,1088.84 1759.32,1089.7 1758.4,1090.62C1752.33,1095.5 1744.61,1098.42 1736.22,1098.42C1732.54,1098.42 1729,1097.86 1725.66,1096.82C1732.18,1103.25 1736.22,1112.18 1736.22,1122.05C1736.22,1131.91 1732.18,1140.85 1725.66,1147.27C1729,1146.23 1732.54,1145.67 1736.22,1145.67C1755.78,1145.67 1771.65,1161.55 1771.65,1181.1C1771.65,1200.66 1755.78,1216.54 1736.22,1216.54C1716.66,1216.54 1700.79,1200.66 1700.79,1181.1C1700.79,1171.24 1704.83,1162.31 1711.35,1155.88C1708.01,1156.92 1704.46,1157.48 1700.79,1157.48C1681.23,1157.48 1665.35,1141.6 1665.35,1122.05C1665.35,1112.18 1669.4,1103.25 1675.91,1096.82C1672.58,1097.86 1669.03,1098.42 1665.35,1098.42C1661.68,1098.42 1658.13,1097.86 1654.8,1096.82C1661.31,1103.25 1665.35,1112.18 1665.35,1122.05C1665.35,1141.6 1649.48,1157.48 1629.92,1157.48C1626.25,1157.48 1622.7,1156.92 1619.36,1155.88C1625.88,1162.31 1629.92,1171.24 1629.92,1181.1C1629.92,1200.66 1614.04,1216.54 1594.49,1216.54C1574.93,1216.54 1559.06,1200.66 1559.06,1181.1C1559.06,1171.24 1563.1,1162.31 1569.61,1155.88C1566.28,1156.92 1562.73,1157.48 1559.06,1157.48C1555.38,1157.48 1551.83,1156.92 1548.5,1155.88C1555.01,1162.31 1559.06,1171.24 1559.06,1181.1ZM1761.28,1088.03C1767.36,1083.15 1775.07,1080.22 1783.47,1080.22C1803.02,1080.22 1818.9,1096.1 1818.9,1115.65C1818.9,1135.21 1803.02,1151.09 1783.47,1151.09C1763.91,1151.09 1748.03,1135.21 1748.03,1115.65C1748.03,1105.88 1752,1097.03 1758.4,1090.62C1759.41,1089.81 1760.37,1088.94 1761.28,1088.03ZM1654.8,1029.16C1658.13,1028.12 1661.68,1027.56 1665.35,1027.56C1669.03,1027.56 1672.58,1028.12 1675.91,1029.16C1669.4,1022.73 1665.35,1013.8 1665.35,1003.94C1665.35,994.07 1669.4,985.14 1675.91,978.712C1672.58,979.754 1669.03,980.315 1665.35,980.315C1661.68,980.315 1658.13,979.754 1654.8,978.712C1661.31,985.14 1665.35,994.07 1665.35,1003.94C1665.35,1013.8 1661.31,1022.73 1654.8,1029.16ZM1690.23,1037.77C1696.75,1044.19 1700.79,1053.12 1700.79,1062.99C1700.79,1072.86 1696.75,1081.79 1690.23,1088.22C1693.56,1087.17 1697.11,1086.61 1700.79,1086.61C1704.46,1086.61 1708.01,1087.17 1711.35,1088.22C1704.83,1081.79 1700.79,1072.86 1700.79,1062.99C1700.79,1053.12 1704.83,1044.19 1711.35,1037.77C1708.01,1038.81 1704.46,1039.37 1700.79,1039.37C1697.11,1039.37 1693.56,1038.81 1690.23,1037.77ZM1807.09,1151.09C1826.64,1151.09 1842.52,1166.96 1842.52,1186.52C1842.52,1206.08 1826.64,1221.95 1807.09,1221.95C1787.53,1221.95 1771.65,1206.08 1771.65,1186.52C1771.65,1166.96 1787.53,1151.09 1807.09,1151.09ZM1665.35,1153.98C1684.91,1153.98 1700.79,1169.86 1700.79,1189.41C1700.79,1208.97 1684.91,1224.85 1665.35,1224.85C1645.8,1224.85 1629.92,1208.97 1629.92,1189.41C1629.92,1169.86 1645.8,1153.98 1665.35,1153.98ZM1578.51,1018.29C1598.06,1018.29 1613.94,1034.17 1613.94,1053.72C1613.94,1073.28 1598.06,1089.15 1578.51,1089.15C1558.95,1089.15 1543.07,1073.28 1543.07,1053.72C1543.07,1034.17 1558.95,1018.29 1578.51,1018.29Z" style="fill:rgb(255,240,134);"/>
    </g>
</svg>
