<?xml version="1.0" encoding="UTF-8" standalone="no"?>
<!DOCTYPE svg PUBLIC "-//W3C//DTD SVG 1.1//EN" "http://www.w3.org/Graphics/SVG/1.1/DTD/svg11.dtd">
<svg width="100%" height="100%" viewBox="0 0 731 730" version="1.1" xmlns="http://www.w3.org/2000/svg" xmlns:xlink="http://www.w3.org/1999/xlink" xml:space="preserve" xmlns:serif="http://www.serif.com/" style="fill-rule:evenodd;clip-rule:evenodd;stroke-linejoin:round;stroke-miterlimit:2;">
    <g transform="matrix(1,0,0,1,-6603.38,-1171.16)">
        <path d="M6972.61,1857.89L6963.42,1857.89L6817.03,1897.82C6801.63,1902.02 6785.2,1899.89 6771.39,1891.92C6757.57,1883.94 6747.51,1870.78 6743.45,1855.35L6605.36,1330.73C6597.01,1298.99 6615.79,1266.44 6647.46,1257.81L6755.75,1228.27C6765.53,1208.57 6785.86,1195.04 6809.34,1195.04L6877.59,1195.04L6959.18,1172.78C6961.85,1172.05 6964.55,1171.51 6967.27,1171.16C6970.81,1171.47 6974.35,1172.1 6977.82,1173.05L7009.51,1181.69C7014.75,1185.4 7019.33,1189.92 7023.09,1195.04L7131.95,1195.04C7156.09,1195.04 7176.88,1209.33 7186.33,1229.92L7289.55,1258.07C7321.22,1266.71 7340,1299.25 7331.65,1330.99L7193.56,1855.61C7189.49,1871.04 7179.44,1884.21 7165.62,1892.18C7151.81,1900.16 7135.37,1902.29 7119.98,1898.09L6972.61,1857.89ZM6939.15,1202.61L6653.64,1280.48C6634.42,1285.72 6623.02,1305.48 6628.09,1324.74L6766.18,1849.36C6768.65,1858.73 6774.75,1866.72 6783.14,1871.56C6791.53,1876.4 6801.5,1877.69 6810.84,1875.14L7122.57,1790.12C7141.78,1784.88 7153.19,1765.12 7148.12,1745.86L7010.03,1221.24C7009.78,1220.32 7009.51,1219.42 7009.2,1218.54C7007.12,1212.57 7003.52,1207.26 6998.79,1203.13C6997.03,1201.6 6995.12,1200.22 6993.07,1199.04C6989.83,1197.17 6986.35,1195.83 6982.77,1195.04C6977.86,1193.95 6972.75,1193.89 6967.76,1194.89C6959.59,1193.6 6951.17,1195.13 6943.94,1199.31C6942.25,1200.28 6940.65,1201.39 6939.15,1202.61ZM7061.93,1857.89L7126.17,1875.41C7135.51,1877.96 7145.48,1876.67 7153.87,1871.83C7162.26,1866.99 7168.36,1858.99 7170.82,1849.63L7172.93,1841.65C7162.22,1851.72 7147.81,1857.89 7131.95,1857.89L7061.93,1857.89ZM7191.76,1770.11L7308.92,1325.01C7313.99,1305.74 7302.58,1285.99 7283.36,1280.75L7191.76,1255.76L7191.76,1770.11ZM7167.82,1249.23C7165.12,1231.85 7150.09,1218.54 7131.95,1218.54L7033.62,1218.54L7168.25,1730.01L7168.25,1254.84C7168.25,1252.93 7168.1,1251.06 7167.82,1249.23ZM7049.6,1834.38L7131.95,1834.38C7152,1834.38 7168.25,1818.13 7168.25,1798.08L7168.25,1778.03C7161.4,1794.5 7147.28,1807.74 7128.75,1812.79L7049.6,1834.38Z" style="fill:rgb(255,240,134);"/>
        <path d="M6850.03,1766.21L6783.68,1514.11C6776.74,1487.77 6783.24,1459.7 6801.04,1439.09L6802.08,1437.88C6814.82,1423.12 6819.46,1403.04 6814.5,1384.2L6791.49,1296.78C6789.85,1290.54 6793.54,1284.15 6799.77,1282.45L6840.21,1271.42C6843.24,1270.6 6846.47,1271.01 6849.18,1272.58C6851.9,1274.15 6853.87,1276.74 6854.67,1279.77L6881.86,1383.07C6884.19,1391.9 6890.77,1398.99 6899.4,1401.96L6915.39,1407.47C6941.44,1416.44 6961.3,1437.83 6968.31,1464.47L7034.55,1716.1C7036.19,1722.34 7032.49,1728.73 7026.27,1730.43L6864.49,1774.56C6861.47,1775.38 6858.24,1774.96 6855.52,1773.4C6852.81,1771.83 6850.83,1769.24 6850.03,1766.21ZM6954.66,1504.96L6945.58,1470.45C6940.56,1451.4 6926.37,1436.11 6907.74,1429.69L6891.75,1424.19C6875.69,1418.66 6863.45,1405.48 6859.13,1389.05L6834.96,1297.22L6817.19,1302.06L6837.24,1378.21C6844.17,1404.56 6837.67,1432.62 6819.88,1453.24L6818.83,1454.45C6806.09,1469.2 6801.45,1489.28 6806.41,1508.12L6815.56,1542.9L6954.66,1504.96ZM6987.17,1628.48L6960.65,1527.69L6821.55,1565.64L6848.07,1666.42L6987.17,1628.48ZM6854.06,1689.15L6869.75,1748.76L7008.85,1710.82L6993.16,1651.21L6854.06,1689.15ZM6892.93,1554.05C6922.25,1546.05 6950.13,1560.07 6956.17,1583.03C6962.19,1605.9 6944.99,1632.1 6915.79,1640.07C6886.47,1648.06 6858.59,1634.04 6852.55,1611.08C6846.53,1588.22 6863.73,1562.01 6892.93,1554.05ZM6899.12,1576.72C6883.63,1580.94 6872.09,1592.97 6875.28,1605.1C6878.45,1617.13 6894.24,1621.58 6909.6,1617.39C6925.09,1613.17 6936.63,1601.14 6933.44,1589.02C6930.27,1576.98 6914.48,1572.53 6899.12,1576.72Z" style="fill:rgb(255,240,134);"/>
    </g>
</svg>
