<?xml version="1.0" encoding="UTF-8" standalone="no"?>
<!DOCTYPE svg PUBLIC "-//W3C//DTD SVG 1.1//EN" "http://www.w3.org/Graphics/SVG/1.1/DTD/svg11.dtd">
<svg width="100%" height="100%" viewBox="0 0 568 473" version="1.1" xmlns="http://www.w3.org/2000/svg" xmlns:xlink="http://www.w3.org/1999/xlink" xml:space="preserve" xmlns:serif="http://www.serif.com/" style="fill-rule:evenodd;clip-rule:evenodd;stroke-linejoin:round;stroke-miterlimit:2;">
    <g transform="matrix(1,0,0,1,-7569.54,-1181.1)">
        <path d="M8040.1,1387.4C8041.34,1397.2 8041.98,1407.19 8041.98,1417.32C8041.98,1547.7 7936.14,1653.54 7805.76,1653.54C7675.39,1653.54 7569.54,1547.7 7569.54,1417.32C7569.54,1286.95 7675.39,1181.1 7805.76,1181.1C7864.38,1181.1 7918.05,1202.5 7959.36,1237.91L7956.59,1243.09L7954.54,1249.85L7953.84,1256.95L7953.84,1289.33L7940.65,1302.51C7908.14,1264.37 7859.76,1240.16 7805.76,1240.16C7707.98,1240.16 7628.6,1319.54 7628.6,1417.32C7628.6,1515.1 7707.98,1594.49 7805.76,1594.49C7893.41,1594.49 7966.28,1530.7 7980.44,1447.06L8040.1,1387.4ZM7977.47,1255.16C7977.85,1252.45 7979.1,1249.93 7981.06,1247.97L8026.53,1202.5C8030.16,1198.87 8035.62,1197.78 8040.37,1199.75C8045.11,1201.71 8048.21,1206.34 8048.21,1211.48L8048.21,1274.42C8048.21,1277.79 8049.55,1281.02 8051.93,1283.4C8054.31,1285.78 8057.54,1287.12 8060.9,1287.12L8123.85,1287.12C8128.99,1287.12 8133.62,1290.21 8135.58,1294.96C8137.55,1299.7 8136.46,1305.17 8132.83,1308.8L8087.36,1354.27C8084.98,1356.65 8081.75,1357.99 8078.38,1357.99L8035.3,1357.99C8035.09,1358.28 8034.89,1358.57 8034.68,1358.86C8033.41,1360.6 8031.99,1362.26 8030.43,1363.83L7912.32,1481.94C7908.03,1486.22 7903.05,1489.38 7897.73,1491.4C7882.85,1497.07 7865.37,1493.92 7853.39,1481.94C7848.07,1476.62 7844.49,1470.21 7842.65,1463.43C7838.87,1449.48 7842.45,1433.95 7853.39,1423.01L7971.5,1304.9C7973.33,1303.08 7975.29,1301.45 7977.34,1300.04L7977.34,1256.95C7977.34,1256.35 7977.38,1255.75 7977.47,1255.16ZM7870.08,1516.38C7851.57,1528.43 7829.48,1535.43 7805.76,1535.43C7740.57,1535.43 7687.65,1482.51 7687.65,1417.32C7687.65,1352.14 7740.57,1299.21 7805.76,1299.21C7843.47,1299.21 7877.07,1316.92 7898.7,1344.46L7856.33,1386.83C7845.99,1369.72 7827.2,1358.27 7805.76,1358.27C7773.17,1358.27 7746.71,1384.73 7746.71,1417.32C7746.71,1449.92 7773.17,1476.38 7805.76,1476.38C7811.19,1476.38 7816.44,1475.64 7821.43,1474.27C7824.56,1483.14 7829.68,1491.47 7836.77,1498.56C7846.22,1508.01 7857.87,1513.95 7870.08,1516.38Z" style="fill:rgb(255,240,134);"/>
    </g>
</svg>
