<?xml version="1.0" encoding="UTF-8" standalone="no"?>
<!DOCTYPE svg PUBLIC "-//W3C//DTD SVG 1.1//EN" "http://www.w3.org/Graphics/SVG/1.1/DTD/svg11.dtd">
<svg width="100%" height="100%" viewBox="0 0 473 473" version="1.1" xmlns="http://www.w3.org/2000/svg" xmlns:xlink="http://www.w3.org/1999/xlink" xml:space="preserve" xmlns:serif="http://www.serif.com/" style="fill-rule:evenodd;clip-rule:evenodd;stroke-linejoin:round;stroke-miterlimit:2;">
    <g transform="matrix(1,0,0,1,-472.441,-944.882)">
        <path d="M673.061,970.036C678.404,954.958 692.665,944.882 708.661,944.882C724.658,944.882 738.919,954.958 744.262,970.036L768.158,1037.47L832.734,1006.68C847.174,999.799 864.384,1002.76 875.695,1014.07C887.006,1025.38 889.965,1042.59 883.081,1057.03L852.298,1121.61L919.728,1145.5C934.805,1150.85 944.882,1165.11 944.882,1181.1C944.882,1197.1 934.805,1211.36 919.728,1216.7L852.298,1240.6L883.081,1305.17C889.965,1319.62 887.006,1336.82 875.695,1348.13C864.384,1359.45 847.174,1362.41 832.734,1355.52L768.158,1324.74L744.262,1392.17C738.919,1407.25 724.658,1417.32 708.661,1417.32C692.665,1417.32 678.404,1407.25 673.061,1392.17L649.165,1324.74L584.588,1355.52C570.149,1362.41 552.939,1359.45 541.628,1348.13C530.317,1336.82 527.358,1319.62 534.241,1305.17L565.025,1240.6L497.595,1216.7C482.518,1211.36 472.441,1197.1 472.441,1181.1C472.441,1165.11 482.518,1150.85 497.595,1145.5L565.025,1121.61L534.241,1057.03C527.358,1042.59 530.317,1025.38 541.628,1014.07C552.939,1002.76 570.149,999.799 584.588,1006.68L649.165,1037.47L673.061,970.036ZM768.352,1247.38L802.808,1116.65C804.024,1111.38 801.997,1108.75 796.727,1108.75L775.648,1108.75C771.189,1108.75 768.554,1110.84 767.743,1115.03L748.489,1205.63L723.153,1114.83C722.207,1110.77 719.573,1108.75 715.249,1108.75L701.466,1108.75C697.142,1108.75 694.507,1110.77 693.562,1114.83L668.226,1205.22L648.971,1115.03C648.161,1110.84 645.526,1108.75 641.067,1108.75L620.596,1108.75C615.326,1108.75 613.299,1111.38 614.515,1116.65L647.553,1247.38C648.498,1251.43 651.133,1253.46 655.457,1253.46L676.536,1253.46C680.725,1253.46 683.36,1251.43 684.441,1247.38L708.155,1160.83L731.463,1247.38C732.544,1251.43 735.179,1253.46 739.368,1253.46L760.447,1253.46C764.771,1253.46 767.406,1251.43 768.352,1247.38Z" style="fill:rgb(255,240,134);"/>
    </g>
</svg>
