<?xml version="1.0" encoding="UTF-8" standalone="no"?>
<!DOCTYPE svg PUBLIC "-//W3C//DTD SVG 1.1//EN" "http://www.w3.org/Graphics/SVG/1.1/DTD/svg11.dtd">
<svg width="100%" height="100%" viewBox="0 0 655 577" version="1.1" xmlns="http://www.w3.org/2000/svg" xmlns:xlink="http://www.w3.org/1999/xlink" xml:space="preserve" xmlns:serif="http://www.serif.com/" style="fill-rule:evenodd;clip-rule:evenodd;stroke-linejoin:round;stroke-miterlimit:2;">
    <g transform="matrix(1,0,0,1,-51.9149,-382.959)">
        <g>
            <g transform="matrix(1.75998,0,0,1.75998,-556.336,130.614)">
                <path d="M348.269,317.048C344.711,310.884 344.711,303.29 348.269,297.125L431.256,153.345C434.815,147.178 441.394,143.379 448.515,143.379L614.477,143.379C621.598,143.379 628.177,147.178 631.736,153.345L714.723,297.125C718.281,303.29 718.281,310.884 714.723,317.048L631.736,460.828C628.177,466.995 621.598,470.794 614.477,470.794L448.515,470.794C441.394,470.794 434.815,466.995 431.256,460.828L348.269,317.048ZM466.165,338.876L481.996,364.881C487.819,374.444 500.311,377.482 509.875,371.659C519.439,365.837 522.476,353.345 516.654,343.781L508.859,330.978L595.882,275.116C605.305,269.068 608.044,256.507 601.996,247.084C595.947,237.662 583.387,234.922 573.964,240.971L473.89,305.21C472.711,305.652 471.557,306.21 470.442,306.889C465.56,309.861 462.378,314.572 461.208,319.744C459.831,325.033 460.58,330.86 463.763,335.819C464.478,336.932 465.284,337.952 466.165,338.876ZM480.836,418.676L582.156,418.676C593.353,418.676 602.444,409.585 602.444,398.389C602.444,387.192 593.353,378.101 582.156,378.101L480.836,378.101C469.639,378.101 460.548,387.192 460.548,398.389C460.548,409.585 469.639,418.676 480.836,418.676Z" style="fill:rgb(255,240,134);"/>
            </g>
        </g>
    </g>
</svg>
