<?xml version="1.0" encoding="UTF-8" standalone="no"?>
<!DOCTYPE svg PUBLIC "-//W3C//DTD SVG 1.1//EN" "http://www.w3.org/Graphics/SVG/1.1/DTD/svg11.dtd">
<svg width="100%" height="100%" viewBox="0 0 2193 577" version="1.1" xmlns="http://www.w3.org/2000/svg" xmlns:xlink="http://www.w3.org/1999/xlink" xml:space="preserve" xmlns:serif="http://www.serif.com/" style="fill-rule:evenodd;clip-rule:evenodd;stroke-linejoin:round;stroke-miterlimit:2;">
    <g transform="matrix(1,0,0,1,-51.9149,-382.959)">
        <g transform="matrix(1.81961,0,0,1.97396,105.407,-27.3005)">
            <path d="M439.553,306.397C433.153,306.397 427.819,307.63 423.553,310.097C419.286,312.564 417.153,316.064 417.153,320.597C417.153,324.73 419.119,327.897 423.053,330.097C426.986,332.297 432.686,334.13 440.153,335.597C444.553,336.53 447.419,337.13 448.753,337.397C450.086,337.664 452.953,338.297 457.353,339.297C461.753,340.297 464.886,341.164 466.753,341.897C468.619,342.63 471.453,343.73 475.253,345.197C479.053,346.664 481.853,348.097 483.653,349.497C485.453,350.897 487.653,352.73 490.253,354.997C492.853,357.264 494.786,359.597 496.053,361.997C497.319,364.397 498.419,367.197 499.353,370.397C500.286,373.597 500.753,377.064 500.753,380.797C500.753,394.53 495.586,405.797 485.253,414.597C474.919,423.397 460.753,427.797 442.753,427.797C430.486,427.797 419.353,425.597 409.353,421.197C399.353,416.797 391.286,410.597 385.153,402.597C382.353,398.73 383.019,395.53 387.153,392.997L400.153,384.197C403.753,381.93 406.953,382.597 409.753,386.197C417.886,396.197 429.219,401.197 443.753,401.197C451.619,401.197 457.853,399.697 462.453,396.697C467.053,393.697 469.353,389.597 469.353,384.397C469.353,382.397 469.019,380.63 468.353,379.097C467.686,377.564 466.519,376.23 464.853,375.097C463.186,373.964 461.653,372.997 460.253,372.197C458.853,371.397 456.686,370.664 453.753,369.997C450.819,369.33 448.586,368.83 447.053,368.497C445.519,368.164 442.886,367.664 439.153,366.997C433.153,365.93 427.819,364.764 423.153,363.497C418.486,362.23 413.686,360.43 408.753,358.097C403.819,355.764 399.719,353.064 396.453,349.997C393.186,346.93 390.519,343.097 388.453,338.497C386.386,333.897 385.353,328.73 385.353,322.997C385.353,309.53 390.419,298.964 400.553,291.297C410.686,283.63 423.819,279.797 439.953,279.797C462.753,279.797 480.619,287.13 493.553,301.797C496.619,305.53 496.086,308.797 491.953,311.597L479.953,319.597C476.486,321.864 473.419,321.597 470.753,318.797C462.753,310.53 452.353,306.397 439.553,306.397Z" style="fill:rgb(255,238,107);fill-rule:nonzero;"/>
            <path d="M582.553,415.597C583.619,420.13 582.286,423.13 578.553,424.597C572.286,426.597 565.753,427.597 558.953,427.597C547.619,427.597 539.086,424.897 533.353,419.497C527.619,414.097 524.753,405.464 524.753,393.597L524.753,342.597L512.553,342.597C507.886,342.597 505.553,340.264 505.553,335.597L505.553,325.397C505.553,320.73 507.886,318.397 512.553,318.397L524.753,318.397L524.753,289.397C524.753,284.73 527.086,282.397 531.753,282.397L548.353,282.397C553.019,282.397 555.353,284.73 555.353,289.397L555.353,318.397L573.753,318.397C578.419,318.397 580.753,320.73 580.753,325.397L580.753,335.597C580.753,340.264 578.419,342.597 573.753,342.597L555.353,342.597L555.353,388.597C555.353,397.264 559.286,401.597 567.153,401.597C568.353,401.597 569.753,401.464 571.353,401.197C575.886,400.264 578.686,401.664 579.753,405.397L582.553,415.597Z" style="fill:rgb(255,238,107);fill-rule:nonzero;"/>
            <path d="M687.553,318.397C692.219,318.397 694.553,320.73 694.553,325.397L694.553,418.197C694.553,422.864 692.219,425.197 687.553,425.197L670.953,425.197C666.286,425.197 663.953,423.264 663.953,419.397L663.953,413.597C656.886,422.93 646.619,427.597 633.153,427.597C622.219,427.597 613.619,423.997 607.353,416.797C601.086,409.597 597.953,400.464 597.953,389.397L597.953,325.397C597.953,320.73 600.286,318.397 604.953,318.397L621.753,318.397C626.419,318.397 628.753,320.73 628.753,325.397L628.753,382.197C628.753,394.33 633.886,400.397 644.153,400.397C650.019,400.397 654.786,398.53 658.453,394.797C662.119,391.064 663.953,385.864 663.953,379.197L663.953,325.397C663.953,320.73 666.286,318.397 670.953,318.397L687.553,318.397Z" style="fill:rgb(255,238,107);fill-rule:nonzero;"/>
            <path d="M787.753,425.197C783.086,425.197 780.753,422.864 780.753,418.197L780.753,360.997C780.753,349.13 775.819,343.197 765.953,343.197C760.353,343.197 755.919,344.997 752.653,348.597C749.386,352.197 747.753,357.33 747.753,363.997L747.753,418.197C747.753,422.864 745.419,425.197 740.753,425.197L723.953,425.197C719.286,425.197 716.953,422.864 716.953,418.197L716.953,325.397C716.953,320.73 719.286,318.397 723.953,318.397L740.753,318.397C745.419,318.397 747.753,320.264 747.753,323.997L747.753,329.797C754.686,320.597 764.486,315.997 777.153,315.997C791.419,315.997 801.086,321.864 806.153,333.597C814.286,321.864 825.619,315.997 840.153,315.997C851.353,315.997 859.986,319.53 866.053,326.597C872.119,333.664 875.153,342.73 875.153,353.797L875.153,418.197C875.153,422.864 872.819,425.197 868.153,425.197L851.553,425.197C846.886,425.197 844.553,422.864 844.553,418.197L844.553,360.997C844.553,349.13 839.553,343.197 829.553,343.197C824.086,343.197 819.686,344.997 816.353,348.597C813.019,352.197 811.353,357.33 811.353,363.997L811.353,418.197C811.353,422.864 809.019,425.197 804.353,425.197L787.753,425.197Z" style="fill:rgb(255,238,107);fill-rule:nonzero;"/>
            <path d="M920.553,282.397C925.219,282.397 927.553,284.73 927.553,289.397L927.553,330.197C934.353,320.73 944.619,315.997 958.353,315.997C972.619,315.997 984.153,321.264 992.953,331.797C1001.75,342.33 1006.15,355.597 1006.15,371.597C1006.15,387.73 1001.75,401.097 992.953,411.697C984.153,422.297 972.619,427.597 958.353,427.597C944.753,427.597 934.486,422.864 927.553,413.397L927.553,418.197C927.553,422.864 925.219,425.197 920.553,425.197L903.753,425.197C899.086,425.197 896.753,422.864 896.753,418.197L896.753,289.397C896.753,284.73 899.086,282.397 903.753,282.397L920.553,282.397ZM927.553,371.997C927.553,380.53 929.586,387.53 933.653,392.997C937.719,398.464 943.486,401.197 950.953,401.197C958.419,401.197 964.119,398.464 968.053,392.997C971.986,387.53 973.953,380.53 973.953,371.997C973.953,363.464 971.986,356.397 968.053,350.797C964.119,345.197 958.419,342.397 950.953,342.397C943.619,342.397 937.886,345.23 933.753,350.897C929.619,356.564 927.553,363.597 927.553,371.997Z" style="fill:rgb(255,238,107);fill-rule:nonzero;"/>
            <path d="M1029.75,425.197C1025.09,425.197 1022.75,422.864 1022.75,418.197L1022.75,289.397C1022.75,284.73 1025.09,282.397 1029.75,282.397L1046.55,282.397C1051.22,282.397 1053.55,284.73 1053.55,289.397L1053.55,418.197C1053.55,422.864 1051.22,425.197 1046.55,425.197L1029.75,425.197Z" style="fill:rgb(255,238,107);fill-rule:nonzero;"/>
            <path d="M1084.46,412.197C1074.66,401.93 1069.75,388.597 1069.75,372.197C1069.75,355.797 1074.59,342.33 1084.25,331.797C1093.92,321.264 1107.02,315.997 1123.55,315.997C1139.69,315.997 1152.35,320.93 1161.55,330.797C1170.75,340.664 1175.35,353.53 1175.35,369.397L1175.35,372.997C1174.95,377.53 1172.49,379.797 1167.95,379.797L1102.75,379.797C1102.75,386.597 1105.02,391.764 1109.55,395.297C1114.09,398.83 1119.89,400.597 1126.95,400.597C1135.35,400.597 1142.42,398.13 1148.15,393.197C1151.75,390.13 1155.02,390.064 1157.95,392.997L1166.95,401.797C1170.55,405.13 1170.62,408.397 1167.15,411.597C1156.35,422.264 1142.35,427.597 1125.15,427.597C1107.83,427.597 1094.27,422.464 1084.46,412.197ZM1145.15,358.997C1144.62,352.597 1142.49,347.63 1138.75,344.097C1135.02,340.564 1130.22,338.797 1124.35,338.797C1118.22,338.797 1113.22,340.63 1109.35,344.297C1105.49,347.964 1103.29,352.864 1102.75,358.997L1145.15,358.997Z" style="fill:rgb(255,238,107);fill-rule:nonzero;"/>
        </g>
        <g transform="matrix(1.75998,0,0,1.75998,-556.336,130.614)">
            <path d="M348.269,317.048C344.711,310.884 344.711,303.29 348.269,297.125L431.256,153.345C434.815,147.178 441.394,143.379 448.515,143.379L614.477,143.379C621.598,143.379 628.177,147.178 631.736,153.345L714.723,297.125C718.281,303.29 718.281,310.884 714.723,317.048L631.736,460.828C628.177,466.995 621.598,470.794 614.477,470.794L448.515,470.794C441.394,470.794 434.815,466.995 431.256,460.828L348.269,317.048ZM466.165,338.876L481.996,364.881C487.819,374.444 500.311,377.482 509.875,371.659C519.439,365.837 522.476,353.345 516.654,343.781L508.859,330.978L595.882,275.116C605.305,269.068 608.044,256.507 601.996,247.084C595.947,237.662 583.387,234.922 573.964,240.971L473.89,305.21C472.711,305.652 471.557,306.21 470.442,306.889C465.56,309.861 462.378,314.572 461.208,319.744C459.831,325.033 460.58,330.86 463.763,335.819C464.478,336.932 465.284,337.952 466.165,338.876ZM480.836,418.676L582.156,418.676C593.353,418.676 602.444,409.585 602.444,398.389C602.444,387.192 593.353,378.101 582.156,378.101L480.836,378.101C469.639,378.101 460.548,387.192 460.548,398.389C460.548,409.585 469.639,418.676 480.836,418.676Z" style="fill:rgb(255,238,107);"/>
        </g>
    </g>
</svg>
